<?xml version="1.0" encoding="utf-8"?>
<!-- Generator: Adobe Illustrator 26.0.3, SVG Export Plug-In . SVG Version: 6.00 Build 0)  -->
<svg version="1.1" id="Layer_1" xmlns="http://www.w3.org/2000/svg" xmlns:xlink="http://www.w3.org/1999/xlink" x="0px" y="0px"
	 viewBox="0 0 514.6 162.3" style="enable-background:new 0 0 514.6 162.3;" xml:space="preserve">
<style type="text/css">
	.st0{stroke:#000000;stroke-miterlimit:10;}
	.st1{fill:#010000;stroke:#000000;stroke-width:1.002;stroke-miterlimit:10;}
	.st2{fill:#020101;stroke:#000000;stroke-width:1.0039;stroke-miterlimit:10;}
	.st3{fill:#030101;stroke:#000000;stroke-width:1.0059;stroke-miterlimit:10;}
	.st4{fill:#040202;stroke:#000000;stroke-width:1.0078;stroke-miterlimit:10;}
	.st5{fill:#050202;stroke:#000000;stroke-width:1.0098;stroke-miterlimit:10;}
	.st6{fill:#060202;stroke:#000000;stroke-width:1.0118;stroke-miterlimit:10;}
	.st7{fill:#070303;stroke:#000000;stroke-width:1.0137;stroke-miterlimit:10;}
	.st8{fill:#080303;stroke:#000000;stroke-width:1.0157;stroke-miterlimit:10;}
	.st9{fill:#090404;stroke:#000000;stroke-width:1.0176;stroke-miterlimit:10;}
	.st10{fill:#0A0404;stroke:#000000;stroke-width:1.0196;stroke-miterlimit:10;}
	.st11{fill:#0B0404;stroke:#000000;stroke-width:1.0216;stroke-miterlimit:10;}
	.st12{fill:#0C0505;stroke:#000000;stroke-width:1.0235;stroke-miterlimit:10;}
	.st13{fill:#0D0505;stroke:#000000;stroke-width:1.0255;stroke-miterlimit:10;}
	.st14{fill:#0E0606;stroke:#000000;stroke-width:1.0275;stroke-miterlimit:10;}
	.st15{fill:#0F0606;stroke:#000000;stroke-width:1.0294;stroke-miterlimit:10;}
	.st16{fill:#100606;stroke:#000000;stroke-width:1.0314;stroke-miterlimit:10;}
	.st17{fill:#110707;stroke:#000000;stroke-width:1.0333;stroke-miterlimit:10;}
	.st18{fill:#120707;stroke:#000000;stroke-width:1.0353;stroke-miterlimit:10;}
	.st19{fill:#130808;stroke:#000000;stroke-width:1.0373;stroke-miterlimit:10;}
	.st20{fill:#140808;stroke:#000000;stroke-width:1.0392;stroke-miterlimit:10;}
	.st21{fill:#150808;stroke:#000000;stroke-width:1.0412;stroke-miterlimit:10;}
	.st22{fill:#160909;stroke:#000000;stroke-width:1.0431;stroke-miterlimit:10;}
	.st23{fill:#170909;stroke:#000000;stroke-width:1.0451;stroke-miterlimit:10;}
	.st24{fill:#180A0A;stroke:#000000;stroke-width:1.0471;stroke-miterlimit:10;}
	.st25{fill:#190A0A;stroke:#000000;stroke-width:1.049;stroke-miterlimit:10;}
	.st26{fill:#1A0A0A;stroke:#000000;stroke-width:1.051;stroke-miterlimit:10;}
	.st27{fill:#1B0B0B;stroke:#000000;stroke-width:1.0529;stroke-miterlimit:10;}
	.st28{fill:#1C0B0B;stroke:#000000;stroke-width:1.0549;stroke-miterlimit:10;}
	.st29{fill:#1D0C0C;stroke:#000000;stroke-width:1.0569;stroke-miterlimit:10;}
	.st30{fill:#1E0C0C;stroke:#000000;stroke-width:1.0588;stroke-miterlimit:10;}
	.st31{fill:#1F0C0C;stroke:#000000;stroke-width:1.0608;stroke-miterlimit:10;}
	.st32{fill:#200D0D;stroke:#000000;stroke-width:1.0627;stroke-miterlimit:10;}
	.st33{fill:#210D0D;stroke:#000000;stroke-width:1.0647;stroke-miterlimit:10;}
	.st34{fill:#220E0E;stroke:#000000;stroke-width:1.0667;stroke-miterlimit:10;}
	.st35{fill:#230E0E;stroke:#000000;stroke-width:1.0686;stroke-miterlimit:10;}
	.st36{fill:#240E0E;stroke:#000000;stroke-width:1.0706;stroke-miterlimit:10;}
	.st37{fill:#250F0F;stroke:#000000;stroke-width:1.0725;stroke-miterlimit:10;}
	.st38{fill:#260F0F;stroke:#000000;stroke-width:1.0745;stroke-miterlimit:10;}
	.st39{fill:#271010;stroke:#000000;stroke-width:1.0765;stroke-miterlimit:10;}
	.st40{fill:#281010;stroke:#000000;stroke-width:1.0784;stroke-miterlimit:10;}
	.st41{fill:#291010;stroke:#000000;stroke-width:1.0804;stroke-miterlimit:10;}
	.st42{fill:#2A1111;stroke:#000000;stroke-width:1.0824;stroke-miterlimit:10;}
	.st43{fill:#2B1111;stroke:#000000;stroke-width:1.0843;stroke-miterlimit:10;}
	.st44{fill:#2C1212;stroke:#000000;stroke-width:1.0863;stroke-miterlimit:10;}
	.st45{fill:#2D1212;stroke:#000000;stroke-width:1.0882;stroke-miterlimit:10;}
	.st46{fill:#2E1212;stroke:#000000;stroke-width:1.0902;stroke-miterlimit:10;}
	.st47{fill:#2F1313;stroke:#000000;stroke-width:1.0922;stroke-miterlimit:10;}
	.st48{fill:#301313;stroke:#000000;stroke-width:1.0941;stroke-miterlimit:10;}
	.st49{fill:#311414;stroke:#000000;stroke-width:1.0961;stroke-miterlimit:10;}
	.st50{fill:#321414;stroke:#000000;stroke-width:1.098;stroke-miterlimit:10;}
	.st51{fill:#331414;stroke:#000000;stroke-width:1.1;stroke-miterlimit:10;}
	.st52{fill:#341515;stroke:#000000;stroke-width:1.102;stroke-miterlimit:10;}
	.st53{fill:#351515;stroke:#000000;stroke-width:1.1039;stroke-miterlimit:10;}
	.st54{fill:#361616;stroke:#000000;stroke-width:1.1059;stroke-miterlimit:10;}
	.st55{fill:#371616;stroke:#000000;stroke-width:1.1078;stroke-miterlimit:10;}
	.st56{fill:#381616;stroke:#000000;stroke-width:1.1098;stroke-miterlimit:10;}
	.st57{fill:#391717;stroke:#000000;stroke-width:1.1118;stroke-miterlimit:10;}
	.st58{fill:#3A1717;stroke:#000000;stroke-width:1.1137;stroke-miterlimit:10;}
	.st59{fill:#3B1818;stroke:#000000;stroke-width:1.1157;stroke-miterlimit:10;}
	.st60{fill:#3C1818;stroke:#000000;stroke-width:1.1176;stroke-miterlimit:10;}
	.st61{fill:#3D1818;stroke:#000000;stroke-width:1.1196;stroke-miterlimit:10;}
	.st62{fill:#3E1919;stroke:#000000;stroke-width:1.1216;stroke-miterlimit:10;}
	.st63{fill:#3F1919;stroke:#000000;stroke-width:1.1235;stroke-miterlimit:10;}
	.st64{fill:#401A1A;stroke:#000000;stroke-width:1.1255;stroke-miterlimit:10;}
	.st65{fill:#411A1A;stroke:#000000;stroke-width:1.1275;stroke-miterlimit:10;}
	.st66{fill:#421A1A;stroke:#000000;stroke-width:1.1294;stroke-miterlimit:10;}
	.st67{fill:#431B1B;stroke:#000000;stroke-width:1.1314;stroke-miterlimit:10;}
	.st68{fill:#441B1B;stroke:#000000;stroke-width:1.1333;stroke-miterlimit:10;}
	.st69{fill:#451C1C;stroke:#000000;stroke-width:1.1353;stroke-miterlimit:10;}
	.st70{fill:#461C1C;stroke:#000000;stroke-width:1.1373;stroke-miterlimit:10;}
	.st71{fill:#471C1C;stroke:#000000;stroke-width:1.1392;stroke-miterlimit:10;}
	.st72{fill:#481D1D;stroke:#000000;stroke-width:1.1412;stroke-miterlimit:10;}
	.st73{fill:#491D1D;stroke:#000000;stroke-width:1.1431;stroke-miterlimit:10;}
	.st74{fill:#4A1E1E;stroke:#000000;stroke-width:1.1451;stroke-miterlimit:10;}
	.st75{fill:#4B1E1E;stroke:#000000;stroke-width:1.1471;stroke-miterlimit:10;}
	.st76{fill:#4C1E1E;stroke:#000000;stroke-width:1.149;stroke-miterlimit:10;}
	.st77{fill:#4D1F1F;stroke:#000000;stroke-width:1.151;stroke-miterlimit:10;}
	.st78{fill:#4E1F1F;stroke:#000000;stroke-width:1.1529;stroke-miterlimit:10;}
	.st79{fill:#4F2020;stroke:#000000;stroke-width:1.1549;stroke-miterlimit:10;}
	.st80{fill:#502020;stroke:#000000;stroke-width:1.1569;stroke-miterlimit:10;}
	.st81{fill:#512020;stroke:#000000;stroke-width:1.1588;stroke-miterlimit:10;}
	.st82{fill:#522121;stroke:#000000;stroke-width:1.1608;stroke-miterlimit:10;}
	.st83{fill:#532121;stroke:#000000;stroke-width:1.1627;stroke-miterlimit:10;}
	.st84{fill:#542222;stroke:#000000;stroke-width:1.1647;stroke-miterlimit:10;}
	.st85{fill:#552222;stroke:#000000;stroke-width:1.1667;stroke-miterlimit:10;}
	.st86{fill:#562222;stroke:#000000;stroke-width:1.1686;stroke-miterlimit:10;}
	.st87{fill:#572323;stroke:#000000;stroke-width:1.1706;stroke-miterlimit:10;}
	.st88{fill:#582323;stroke:#000000;stroke-width:1.1725;stroke-miterlimit:10;}
	.st89{fill:#592424;stroke:#000000;stroke-width:1.1745;stroke-miterlimit:10;}
	.st90{fill:#5A2424;stroke:#000000;stroke-width:1.1765;stroke-miterlimit:10;}
	.st91{fill:#5B2424;stroke:#000000;stroke-width:1.1784;stroke-miterlimit:10;}
	.st92{fill:#5C2525;stroke:#000000;stroke-width:1.1804;stroke-miterlimit:10;}
	.st93{fill:#5D2525;stroke:#000000;stroke-width:1.1824;stroke-miterlimit:10;}
	.st94{fill:#5E2626;stroke:#000000;stroke-width:1.1843;stroke-miterlimit:10;}
	.st95{fill:#5F2626;stroke:#000000;stroke-width:1.1863;stroke-miterlimit:10;}
	.st96{fill:#602626;stroke:#000000;stroke-width:1.1882;stroke-miterlimit:10;}
	.st97{fill:#612727;stroke:#000000;stroke-width:1.1902;stroke-miterlimit:10;}
	.st98{fill:#622727;stroke:#000000;stroke-width:1.1922;stroke-miterlimit:10;}
	.st99{fill:#632828;stroke:#000000;stroke-width:1.1941;stroke-miterlimit:10;}
	.st100{fill:#642828;stroke:#000000;stroke-width:1.1961;stroke-miterlimit:10;}
	.st101{fill:#652828;stroke:#000000;stroke-width:1.198;stroke-miterlimit:10;}
	.st102{fill:#662929;stroke:#000000;stroke-width:1.2;stroke-miterlimit:10;}
	.st103{fill:#672929;stroke:#000000;stroke-width:1.202;stroke-miterlimit:10;}
	.st104{fill:#682A2A;stroke:#000000;stroke-width:1.2039;stroke-miterlimit:10;}
	.st105{fill:#692A2A;stroke:#000000;stroke-width:1.2059;stroke-miterlimit:10;}
	.st106{fill:#6A2A2A;stroke:#000000;stroke-width:1.2078;stroke-miterlimit:10;}
	.st107{fill:#6B2B2B;stroke:#000000;stroke-width:1.2098;stroke-miterlimit:10;}
	.st108{fill:#6C2B2B;stroke:#000000;stroke-width:1.2118;stroke-miterlimit:10;}
	.st109{fill:#6D2C2C;stroke:#000000;stroke-width:1.2137;stroke-miterlimit:10;}
	.st110{fill:#6E2C2C;stroke:#000000;stroke-width:1.2157;stroke-miterlimit:10;}
	.st111{fill:#6F2C2C;stroke:#000000;stroke-width:1.2176;stroke-miterlimit:10;}
	.st112{fill:#702D2D;stroke:#000000;stroke-width:1.2196;stroke-miterlimit:10;}
	.st113{fill:#712D2D;stroke:#000000;stroke-width:1.2216;stroke-miterlimit:10;}
	.st114{fill:#722E2E;stroke:#000000;stroke-width:1.2235;stroke-miterlimit:10;}
	.st115{fill:#732E2E;stroke:#000000;stroke-width:1.2255;stroke-miterlimit:10;}
	.st116{fill:#742E2E;stroke:#000000;stroke-width:1.2275;stroke-miterlimit:10;}
	.st117{fill:#752F2F;stroke:#000000;stroke-width:1.2294;stroke-miterlimit:10;}
	.st118{fill:#762F2F;stroke:#000000;stroke-width:1.2314;stroke-miterlimit:10;}
	.st119{fill:#773030;stroke:#000000;stroke-width:1.2333;stroke-miterlimit:10;}
	.st120{fill:#783030;stroke:#000000;stroke-width:1.2353;stroke-miterlimit:10;}
	.st121{fill:#793030;stroke:#000000;stroke-width:1.2373;stroke-miterlimit:10;}
	.st122{fill:#7A3131;stroke:#000000;stroke-width:1.2392;stroke-miterlimit:10;}
	.st123{fill:#7B3131;stroke:#000000;stroke-width:1.2412;stroke-miterlimit:10;}
	.st124{fill:#7C3232;stroke:#000000;stroke-width:1.2431;stroke-miterlimit:10;}
	.st125{fill:#7D3232;stroke:#000000;stroke-width:1.2451;stroke-miterlimit:10;}
	.st126{fill:#7E3232;stroke:#000000;stroke-width:1.2471;stroke-miterlimit:10;}
	.st127{fill:#7F3333;stroke:#000000;stroke-width:1.249;stroke-miterlimit:10;}
	.st128{fill:#803333;stroke:#000000;stroke-width:1.251;stroke-miterlimit:10;}
	.st129{fill:#813434;stroke:#000000;stroke-width:1.2529;stroke-miterlimit:10;}
	.st130{fill:#823434;stroke:#000000;stroke-width:1.2549;stroke-miterlimit:10;}
	.st131{fill:#833434;stroke:#000000;stroke-width:1.2569;stroke-miterlimit:10;}
	.st132{fill:#843535;stroke:#000000;stroke-width:1.2588;stroke-miterlimit:10;}
	.st133{fill:#853535;stroke:#000000;stroke-width:1.2608;stroke-miterlimit:10;}
	.st134{fill:#863636;stroke:#000000;stroke-width:1.2627;stroke-miterlimit:10;}
	.st135{fill:#873636;stroke:#000000;stroke-width:1.2647;stroke-miterlimit:10;}
	.st136{fill:#883636;stroke:#000000;stroke-width:1.2667;stroke-miterlimit:10;}
	.st137{fill:#893737;stroke:#000000;stroke-width:1.2686;stroke-miterlimit:10;}
	.st138{fill:#8A3737;stroke:#000000;stroke-width:1.2706;stroke-miterlimit:10;}
	.st139{fill:#8B3838;stroke:#000000;stroke-width:1.2725;stroke-miterlimit:10;}
	.st140{fill:#8C3838;stroke:#000000;stroke-width:1.2745;stroke-miterlimit:10;}
	.st141{fill:#8D3838;stroke:#000000;stroke-width:1.2765;stroke-miterlimit:10;}
	.st142{fill:#8E3939;stroke:#000000;stroke-width:1.2784;stroke-miterlimit:10;}
	.st143{fill:#8F3939;stroke:#000000;stroke-width:1.2804;stroke-miterlimit:10;}
	.st144{fill:#903A3A;stroke:#000000;stroke-width:1.2824;stroke-miterlimit:10;}
	.st145{fill:#913A3A;stroke:#000000;stroke-width:1.2843;stroke-miterlimit:10;}
	.st146{fill:#923A3A;stroke:#000000;stroke-width:1.2863;stroke-miterlimit:10;}
	.st147{fill:#933B3B;stroke:#000000;stroke-width:1.2882;stroke-miterlimit:10;}
	.st148{fill:#943B3B;stroke:#000000;stroke-width:1.2902;stroke-miterlimit:10;}
	.st149{fill:#953C3C;stroke:#000000;stroke-width:1.2922;stroke-miterlimit:10;}
	.st150{fill:#963C3C;stroke:#000000;stroke-width:1.2941;stroke-miterlimit:10;}
	.st151{fill:#973C3C;stroke:#000000;stroke-width:1.2961;stroke-miterlimit:10;}
	.st152{fill:#983D3D;stroke:#000000;stroke-width:1.298;stroke-miterlimit:10;}
	.st153{fill:#993D3D;stroke:#000000;stroke-width:1.3;stroke-miterlimit:10;}
	.st154{fill:#9A3E3E;stroke:#000000;stroke-width:1.302;stroke-miterlimit:10;}
	.st155{fill:#9B3E3E;stroke:#000000;stroke-width:1.3039;stroke-miterlimit:10;}
	.st156{fill:#9C3E3E;stroke:#000000;stroke-width:1.3059;stroke-miterlimit:10;}
	.st157{fill:#9D3F3F;stroke:#000000;stroke-width:1.3078;stroke-miterlimit:10;}
	.st158{fill:#9E3F3F;stroke:#000000;stroke-width:1.3098;stroke-miterlimit:10;}
	.st159{fill:#9F4040;stroke:#000000;stroke-width:1.3118;stroke-miterlimit:10;}
	.st160{fill:#A04040;stroke:#000000;stroke-width:1.3137;stroke-miterlimit:10;}
	.st161{fill:#A14040;stroke:#000000;stroke-width:1.3157;stroke-miterlimit:10;}
	.st162{fill:#A24141;stroke:#000000;stroke-width:1.3176;stroke-miterlimit:10;}
	.st163{fill:#A34141;stroke:#000000;stroke-width:1.3196;stroke-miterlimit:10;}
	.st164{fill:#A44242;stroke:#000000;stroke-width:1.3216;stroke-miterlimit:10;}
	.st165{fill:#A54242;stroke:#000000;stroke-width:1.3235;stroke-miterlimit:10;}
	.st166{fill:#A64242;stroke:#000000;stroke-width:1.3255;stroke-miterlimit:10;}
	.st167{fill:#A74343;stroke:#000000;stroke-width:1.3275;stroke-miterlimit:10;}
	.st168{fill:#A84343;stroke:#000000;stroke-width:1.3294;stroke-miterlimit:10;}
	.st169{fill:#A94444;stroke:#000000;stroke-width:1.3314;stroke-miterlimit:10;}
	.st170{fill:#AA4444;stroke:#000000;stroke-width:1.3333;stroke-miterlimit:10;}
	.st171{fill:#AB4444;stroke:#000000;stroke-width:1.3353;stroke-miterlimit:10;}
	.st172{fill:#AC4545;stroke:#000000;stroke-width:1.3373;stroke-miterlimit:10;}
	.st173{fill:#AD4545;stroke:#000000;stroke-width:1.3392;stroke-miterlimit:10;}
	.st174{fill:#AE4646;stroke:#000000;stroke-width:1.3412;stroke-miterlimit:10;}
	.st175{fill:#AF4646;stroke:#000000;stroke-width:1.3431;stroke-miterlimit:10;}
	.st176{fill:#B04646;stroke:#000000;stroke-width:1.3451;stroke-miterlimit:10;}
	.st177{fill:#B14747;stroke:#000000;stroke-width:1.3471;stroke-miterlimit:10;}
	.st178{fill:#B24747;stroke:#000000;stroke-width:1.349;stroke-miterlimit:10;}
	.st179{fill:#B34848;stroke:#000000;stroke-width:1.351;stroke-miterlimit:10;}
	.st180{fill:#B44848;stroke:#000000;stroke-width:1.3529;stroke-miterlimit:10;}
	.st181{fill:#B54848;stroke:#000000;stroke-width:1.3549;stroke-miterlimit:10;}
	.st182{fill:#B64949;stroke:#000000;stroke-width:1.3569;stroke-miterlimit:10;}
	.st183{fill:#B74949;stroke:#000000;stroke-width:1.3588;stroke-miterlimit:10;}
	.st184{fill:#B84A4A;stroke:#000000;stroke-width:1.3608;stroke-miterlimit:10;}
	.st185{fill:#B94A4A;stroke:#000000;stroke-width:1.3627;stroke-miterlimit:10;}
	.st186{fill:#BA4A4A;stroke:#000000;stroke-width:1.3647;stroke-miterlimit:10;}
	.st187{fill:#BB4B4B;stroke:#000000;stroke-width:1.3667;stroke-miterlimit:10;}
	.st188{fill:#BC4B4B;stroke:#000000;stroke-width:1.3686;stroke-miterlimit:10;}
	.st189{fill:#BD4C4C;stroke:#000000;stroke-width:1.3706;stroke-miterlimit:10;}
	.st190{fill:#BE4C4C;stroke:#000000;stroke-width:1.3725;stroke-miterlimit:10;}
	.st191{fill:#BF4C4C;stroke:#000000;stroke-width:1.3745;stroke-miterlimit:10;}
	.st192{fill:#C04D4D;stroke:#000000;stroke-width:1.3765;stroke-miterlimit:10;}
	.st193{fill:#C14D4D;stroke:#000000;stroke-width:1.3784;stroke-miterlimit:10;}
	.st194{fill:#C24E4E;stroke:#000000;stroke-width:1.3804;stroke-miterlimit:10;}
	.st195{fill:#C34E4E;stroke:#000000;stroke-width:1.3824;stroke-miterlimit:10;}
	.st196{fill:#C44E4E;stroke:#000000;stroke-width:1.3843;stroke-miterlimit:10;}
	.st197{fill:#C54F4F;stroke:#000000;stroke-width:1.3863;stroke-miterlimit:10;}
	.st198{fill:#C64F4F;stroke:#000000;stroke-width:1.3882;stroke-miterlimit:10;}
	.st199{fill:#C75050;stroke:#000000;stroke-width:1.3902;stroke-miterlimit:10;}
	.st200{fill:#C85050;stroke:#000000;stroke-width:1.3922;stroke-miterlimit:10;}
	.st201{fill:#C95050;stroke:#000000;stroke-width:1.3941;stroke-miterlimit:10;}
	.st202{fill:#CA5151;stroke:#000000;stroke-width:1.3961;stroke-miterlimit:10;}
	.st203{fill:#CB5151;stroke:#000000;stroke-width:1.398;stroke-miterlimit:10;}
	.st204{fill:#CC5252;stroke:#000000;stroke-width:1.4;stroke-miterlimit:10;}
	.st205{fill:#CD5252;stroke:#000000;stroke-width:1.402;stroke-miterlimit:10;}
	.st206{fill:#CE5252;stroke:#000000;stroke-width:1.4039;stroke-miterlimit:10;}
	.st207{fill:#CF5353;stroke:#000000;stroke-width:1.4059;stroke-miterlimit:10;}
	.st208{fill:#D05353;stroke:#000000;stroke-width:1.4078;stroke-miterlimit:10;}
	.st209{fill:#D15454;stroke:#000000;stroke-width:1.4098;stroke-miterlimit:10;}
	.st210{fill:#D25454;stroke:#000000;stroke-width:1.4118;stroke-miterlimit:10;}
	.st211{fill:#D35454;stroke:#000000;stroke-width:1.4137;stroke-miterlimit:10;}
	.st212{fill:#D45555;stroke:#000000;stroke-width:1.4157;stroke-miterlimit:10;}
	.st213{fill:#D55555;stroke:#000000;stroke-width:1.4176;stroke-miterlimit:10;}
	.st214{fill:#D65656;stroke:#000000;stroke-width:1.4196;stroke-miterlimit:10;}
	.st215{fill:#D75656;stroke:#000000;stroke-width:1.4216;stroke-miterlimit:10;}
	.st216{fill:#D85656;stroke:#000000;stroke-width:1.4235;stroke-miterlimit:10;}
	.st217{fill:#D95757;stroke:#000000;stroke-width:1.4255;stroke-miterlimit:10;}
	.st218{fill:#DA5757;stroke:#000000;stroke-width:1.4275;stroke-miterlimit:10;}
	.st219{fill:#DB5858;stroke:#000000;stroke-width:1.4294;stroke-miterlimit:10;}
	.st220{fill:#DC5858;stroke:#000000;stroke-width:1.4314;stroke-miterlimit:10;}
	.st221{fill:#DD5858;stroke:#000000;stroke-width:1.4333;stroke-miterlimit:10;}
	.st222{fill:#DE5959;stroke:#000000;stroke-width:1.4353;stroke-miterlimit:10;}
	.st223{fill:#DF5959;stroke:#000000;stroke-width:1.4373;stroke-miterlimit:10;}
	.st224{fill:#E05A5A;stroke:#000000;stroke-width:1.4392;stroke-miterlimit:10;}
	.st225{fill:#E15A5A;stroke:#000000;stroke-width:1.4412;stroke-miterlimit:10;}
	.st226{fill:#E25A5A;stroke:#000000;stroke-width:1.4431;stroke-miterlimit:10;}
	.st227{fill:#E35B5B;stroke:#000000;stroke-width:1.4451;stroke-miterlimit:10;}
	.st228{fill:#E45B5B;stroke:#000000;stroke-width:1.4471;stroke-miterlimit:10;}
	.st229{fill:#E55C5C;stroke:#000000;stroke-width:1.449;stroke-miterlimit:10;}
	.st230{fill:#E65C5C;stroke:#000000;stroke-width:1.451;stroke-miterlimit:10;}
	.st231{fill:#E75C5C;stroke:#000000;stroke-width:1.4529;stroke-miterlimit:10;}
	.st232{fill:#E85D5D;stroke:#000000;stroke-width:1.4549;stroke-miterlimit:10;}
	.st233{fill:#E95D5D;stroke:#000000;stroke-width:1.4569;stroke-miterlimit:10;}
	.st234{fill:#EA5E5E;stroke:#000000;stroke-width:1.4588;stroke-miterlimit:10;}
	.st235{fill:#EB5E5E;stroke:#000000;stroke-width:1.4608;stroke-miterlimit:10;}
	.st236{fill:#EC5E5E;stroke:#000000;stroke-width:1.4627;stroke-miterlimit:10;}
	.st237{fill:#ED5F5F;stroke:#000000;stroke-width:1.4647;stroke-miterlimit:10;}
	.st238{fill:#EE5F5F;stroke:#000000;stroke-width:1.4667;stroke-miterlimit:10;}
	.st239{fill:#EF6060;stroke:#000000;stroke-width:1.4686;stroke-miterlimit:10;}
	.st240{fill:#F06060;stroke:#000000;stroke-width:1.4706;stroke-miterlimit:10;}
	.st241{fill:#F16060;stroke:#000000;stroke-width:1.4725;stroke-miterlimit:10;}
	.st242{fill:#F26161;stroke:#000000;stroke-width:1.4745;stroke-miterlimit:10;}
	.st243{fill:#F36161;stroke:#000000;stroke-width:1.4765;stroke-miterlimit:10;}
	.st244{fill:#F46262;stroke:#000000;stroke-width:1.4784;stroke-miterlimit:10;}
	.st245{fill:#F56262;stroke:#000000;stroke-width:1.4804;stroke-miterlimit:10;}
	.st246{fill:#F66262;stroke:#000000;stroke-width:1.4824;stroke-miterlimit:10;}
	.st247{fill:#F76363;stroke:#000000;stroke-width:1.4843;stroke-miterlimit:10;}
	.st248{fill:#F86363;stroke:#000000;stroke-width:1.4863;stroke-miterlimit:10;}
	.st249{fill:#F96464;stroke:#000000;stroke-width:1.4882;stroke-miterlimit:10;}
	.st250{fill:#FA6464;stroke:#000000;stroke-width:1.4902;stroke-miterlimit:10;}
	.st251{fill:#FB6464;stroke:#000000;stroke-width:1.4922;stroke-miterlimit:10;}
	.st252{fill:#FC6565;stroke:#000000;stroke-width:1.4941;stroke-miterlimit:10;}
	.st253{fill:#FD6565;stroke:#000000;stroke-width:1.4961;stroke-miterlimit:10;}
	.st254{fill:#FE6666;stroke:#000000;stroke-width:1.498;stroke-miterlimit:10;}
	.st255{fill:#FF6666;stroke:#000000;stroke-width:1.5;stroke-miterlimit:10;}
</style>
<g>
	<rect x="69" y="30.9" class="st0" width="403.2" height="76.6"/>
	<rect x="69.1" y="30.9" class="st1" width="403.2" height="76.6"/>
	<rect x="69.1" y="30.8" class="st2" width="403.2" height="76.6"/>
	<rect x="69.2" y="30.8" class="st3" width="403.2" height="76.6"/>
	<rect x="69.2" y="30.8" class="st4" width="403.2" height="76.6"/>
	<rect x="69.3" y="30.7" class="st5" width="403.2" height="76.6"/>
	<rect x="69.3" y="30.7" class="st6" width="403.2" height="76.6"/>
	<rect x="69.4" y="30.6" class="st7" width="403.2" height="76.6"/>
	<rect x="69.4" y="30.6" class="st8" width="403.2" height="76.6"/>
	<rect x="69.5" y="30.5" class="st9" width="403.2" height="76.6"/>
	<rect x="69.5" y="30.5" class="st10" width="403.2" height="76.6"/>
	<rect x="69.6" y="30.4" class="st11" width="403.2" height="76.6"/>
	<rect x="69.6" y="30.4" class="st12" width="403.2" height="76.6"/>
	<rect x="69.7" y="30.3" class="st13" width="403.2" height="76.6"/>
	<rect x="69.7" y="30.3" class="st14" width="403.2" height="76.6"/>
	<rect x="69.8" y="30.3" class="st15" width="403.2" height="76.6"/>
	<rect x="69.8" y="30.2" class="st16" width="403.2" height="76.6"/>
	<rect x="69.9" y="30.2" class="st17" width="403.2" height="76.6"/>
	<rect x="69.9" y="30.1" class="st18" width="403.2" height="76.6"/>
	<rect x="70" y="30.1" class="st19" width="403.2" height="76.6"/>
	<rect x="70" y="30" class="st20" width="403.2" height="76.6"/>
	<rect x="70.1" y="30" class="st21" width="403.2" height="76.6"/>
	<rect x="70.1" y="29.9" class="st22" width="403.2" height="76.6"/>
	<rect x="70.2" y="29.9" class="st23" width="403.2" height="76.6"/>
	<rect x="70.3" y="29.9" class="st24" width="403.2" height="76.6"/>
	<rect x="70.3" y="29.8" class="st25" width="403.2" height="76.6"/>
	<rect x="70.4" y="29.8" class="st26" width="403.2" height="76.6"/>
	<rect x="70.4" y="29.7" class="st27" width="403.2" height="76.6"/>
	<rect x="70.5" y="29.7" class="st28" width="403.2" height="76.6"/>
	<rect x="70.5" y="29.6" class="st29" width="403.2" height="76.6"/>
	<rect x="70.6" y="29.6" class="st30" width="403.2" height="76.6"/>
	<rect x="70.6" y="29.5" class="st31" width="403.2" height="76.6"/>
	<rect x="70.7" y="29.5" class="st32" width="403.2" height="76.6"/>
	<rect x="70.7" y="29.5" class="st33" width="403.2" height="76.6"/>
	<rect x="70.8" y="29.4" class="st34" width="403.2" height="76.6"/>
	<rect x="70.8" y="29.4" class="st35" width="403.2" height="76.6"/>
	<rect x="70.9" y="29.3" class="st36" width="403.2" height="76.6"/>
	<rect x="70.9" y="29.3" class="st37" width="403.2" height="76.6"/>
	<rect x="71" y="29.2" class="st38" width="403.2" height="76.6"/>
	<rect x="71" y="29.2" class="st39" width="403.2" height="76.6"/>
	<rect x="71.1" y="29.1" class="st40" width="403.2" height="76.6"/>
	<rect x="71.1" y="29.1" class="st41" width="403.2" height="76.6"/>
	<rect x="71.2" y="29.1" class="st42" width="403.2" height="76.6"/>
	<rect x="71.2" y="29" class="st43" width="403.2" height="76.6"/>
	<rect x="71.3" y="29" class="st44" width="403.2" height="76.6"/>
	<rect x="71.3" y="28.9" class="st45" width="403.2" height="76.6"/>
	<rect x="71.4" y="28.9" class="st46" width="403.2" height="76.6"/>
	<rect x="71.4" y="28.8" class="st47" width="403.2" height="76.6"/>
	<rect x="71.5" y="28.8" class="st48" width="403.2" height="76.6"/>
	<rect x="71.5" y="28.7" class="st49" width="403.2" height="76.6"/>
	<rect x="71.6" y="28.7" class="st50" width="403.2" height="76.6"/>
	<rect x="71.6" y="28.7" class="st51" width="403.2" height="76.6"/>
	<rect x="71.7" y="28.6" class="st52" width="403.2" height="76.6"/>
	<rect x="71.7" y="28.6" class="st53" width="403.2" height="76.6"/>
	<rect x="71.8" y="28.5" class="st54" width="403.2" height="76.6"/>
	<rect x="71.8" y="28.5" class="st55" width="403.2" height="76.6"/>
	<rect x="71.9" y="28.4" class="st56" width="403.2" height="76.6"/>
	<rect x="72" y="28.4" class="st57" width="403.2" height="76.6"/>
	<rect x="72" y="28.3" class="st58" width="403.2" height="76.6"/>
	<rect x="72.1" y="28.3" class="st59" width="403.2" height="76.6"/>
	<rect x="72.1" y="28.3" class="st60" width="403.2" height="76.6"/>
	<rect x="72.2" y="28.2" class="st61" width="403.2" height="76.6"/>
	<rect x="72.2" y="28.2" class="st62" width="403.2" height="76.6"/>
	<rect x="72.3" y="28.1" class="st63" width="403.2" height="76.6"/>
	<rect x="72.3" y="28.1" class="st64" width="403.2" height="76.6"/>
	<rect x="72.4" y="28" class="st65" width="403.2" height="76.6"/>
	<rect x="72.4" y="28" class="st66" width="403.2" height="76.6"/>
	<rect x="72.5" y="27.9" class="st67" width="403.2" height="76.6"/>
	<rect x="72.5" y="27.9" class="st68" width="403.2" height="76.6"/>
	<rect x="72.6" y="27.9" class="st69" width="403.2" height="76.6"/>
	<rect x="72.6" y="27.8" class="st70" width="403.2" height="76.6"/>
	<rect x="72.7" y="27.8" class="st71" width="403.2" height="76.6"/>
	<rect x="72.7" y="27.7" class="st72" width="403.2" height="76.6"/>
	<rect x="72.8" y="27.7" class="st73" width="403.2" height="76.6"/>
	<rect x="72.8" y="27.6" class="st74" width="403.2" height="76.6"/>
	<rect x="72.9" y="27.6" class="st75" width="403.2" height="76.6"/>
	<rect x="72.9" y="27.5" class="st76" width="403.2" height="76.6"/>
	<rect x="73" y="27.5" class="st77" width="403.2" height="76.6"/>
	<rect x="73" y="27.5" class="st78" width="403.2" height="76.6"/>
	<rect x="73.1" y="27.4" class="st79" width="403.2" height="76.6"/>
	<rect x="73.1" y="27.4" class="st80" width="403.2" height="76.6"/>
	<rect x="73.2" y="27.3" class="st81" width="403.2" height="76.6"/>
	<rect x="73.2" y="27.3" class="st82" width="403.2" height="76.6"/>
	<rect x="73.3" y="27.2" class="st83" width="403.2" height="76.6"/>
	<rect x="73.3" y="27.2" class="st84" width="403.2" height="76.6"/>
	<rect x="73.4" y="27.1" class="st85" width="403.2" height="76.6"/>
	<rect x="73.4" y="27.1" class="st86" width="403.2" height="76.6"/>
	<rect x="73.5" y="27.1" class="st87" width="403.2" height="76.6"/>
	<rect x="73.5" y="27" class="st88" width="403.2" height="76.6"/>
	<rect x="73.6" y="27" class="st89" width="403.2" height="76.6"/>
	<rect x="73.7" y="26.9" class="st90" width="403.2" height="76.6"/>
	<rect x="73.7" y="26.9" class="st91" width="403.2" height="76.6"/>
	<rect x="73.8" y="26.8" class="st92" width="403.2" height="76.6"/>
	<rect x="73.8" y="26.8" class="st93" width="403.2" height="76.6"/>
	<rect x="73.9" y="26.7" class="st94" width="403.2" height="76.6"/>
	<rect x="73.9" y="26.7" class="st95" width="403.2" height="76.6"/>
	<rect x="74" y="26.7" class="st96" width="403.2" height="76.6"/>
	<rect x="74" y="26.6" class="st97" width="403.2" height="76.6"/>
	<rect x="74.1" y="26.6" class="st98" width="403.2" height="76.6"/>
	<rect x="74.1" y="26.5" class="st99" width="403.2" height="76.6"/>
	<rect x="74.2" y="26.5" class="st100" width="403.2" height="76.6"/>
	<rect x="74.2" y="26.4" class="st101" width="403.2" height="76.6"/>
	<rect x="74.3" y="26.4" class="st102" width="403.2" height="76.6"/>
	<rect x="74.3" y="26.3" class="st103" width="403.2" height="76.6"/>
	<rect x="74.4" y="26.3" class="st104" width="403.2" height="76.6"/>
	<rect x="74.4" y="26.2" class="st105" width="403.2" height="76.6"/>
	<rect x="74.5" y="26.2" class="st106" width="403.2" height="76.6"/>
	<rect x="74.5" y="26.2" class="st107" width="403.2" height="76.6"/>
	<rect x="74.6" y="26.1" class="st108" width="403.2" height="76.6"/>
	<rect x="74.6" y="26.1" class="st109" width="403.2" height="76.6"/>
	<rect x="74.7" y="26" class="st110" width="403.2" height="76.6"/>
	<rect x="74.7" y="26" class="st111" width="403.2" height="76.6"/>
	<rect x="74.8" y="25.9" class="st112" width="403.2" height="76.6"/>
	<rect x="74.8" y="25.9" class="st113" width="403.2" height="76.6"/>
	<rect x="74.9" y="25.8" class="st114" width="403.2" height="76.6"/>
	<rect x="74.9" y="25.8" class="st115" width="403.2" height="76.6"/>
	<rect x="75" y="25.8" class="st116" width="403.2" height="76.6"/>
	<rect x="75" y="25.7" class="st117" width="403.2" height="76.6"/>
	<rect x="75.1" y="25.7" class="st118" width="403.2" height="76.6"/>
	<rect x="75.1" y="25.6" class="st119" width="403.2" height="76.6"/>
	<rect x="75.2" y="25.6" class="st120" width="403.2" height="76.6"/>
	<rect x="75.2" y="25.5" class="st121" width="403.2" height="76.6"/>
	<rect x="75.3" y="25.5" class="st122" width="403.2" height="76.6"/>
	<rect x="75.4" y="25.4" class="st123" width="403.2" height="76.6"/>
	<rect x="75.4" y="25.4" class="st124" width="403.2" height="76.6"/>
	<rect x="75.5" y="25.4" class="st125" width="403.2" height="76.6"/>
	<rect x="75.5" y="25.3" class="st126" width="403.2" height="76.6"/>
	<rect x="75.6" y="25.3" class="st127" width="403.2" height="76.6"/>
	<rect x="75.6" y="25.2" class="st128" width="403.2" height="76.6"/>
	<rect x="75.7" y="25.2" class="st129" width="403.2" height="76.6"/>
	<rect x="75.7" y="25.1" class="st130" width="403.2" height="76.6"/>
	<rect x="75.8" y="25.1" class="st131" width="403.2" height="76.6"/>
	<rect x="75.8" y="25" class="st132" width="403.2" height="76.6"/>
	<rect x="75.9" y="25" class="st133" width="403.2" height="76.6"/>
	<rect x="75.9" y="25" class="st134" width="403.2" height="76.6"/>
	<rect x="76" y="24.9" class="st135" width="403.2" height="76.6"/>
	<rect x="76" y="24.9" class="st136" width="403.2" height="76.6"/>
	<rect x="76.1" y="24.8" class="st137" width="403.2" height="76.6"/>
	<rect x="76.1" y="24.8" class="st138" width="403.2" height="76.6"/>
	<rect x="76.2" y="24.7" class="st139" width="403.2" height="76.6"/>
	<rect x="76.2" y="24.7" class="st140" width="403.2" height="76.6"/>
	<rect x="76.3" y="24.6" class="st141" width="403.2" height="76.6"/>
	<rect x="76.3" y="24.6" class="st142" width="403.2" height="76.6"/>
	<rect x="76.4" y="24.6" class="st143" width="403.2" height="76.6"/>
	<rect x="76.4" y="24.5" class="st144" width="403.2" height="76.6"/>
	<rect x="76.5" y="24.5" class="st145" width="403.2" height="76.6"/>
	<rect x="76.5" y="24.4" class="st146" width="403.2" height="76.6"/>
	<rect x="76.6" y="24.4" class="st147" width="403.2" height="76.6"/>
	<rect x="76.6" y="24.3" class="st148" width="403.2" height="76.6"/>
	<rect x="76.7" y="24.3" class="st149" width="403.2" height="76.6"/>
	<rect x="76.7" y="24.2" class="st150" width="403.2" height="76.6"/>
	<rect x="76.8" y="24.2" class="st151" width="403.2" height="76.6"/>
	<rect x="76.8" y="24.2" class="st152" width="403.2" height="76.6"/>
	<rect x="76.9" y="24.1" class="st153" width="403.2" height="76.6"/>
	<rect x="76.9" y="24.1" class="st154" width="403.2" height="76.6"/>
	<rect x="77" y="24" class="st155" width="403.2" height="76.6"/>
	<rect x="77.1" y="24" class="st156" width="403.2" height="76.6"/>
	<rect x="77.1" y="23.9" class="st157" width="403.2" height="76.6"/>
	<rect x="77.2" y="23.9" class="st158" width="403.2" height="76.6"/>
	<rect x="77.2" y="23.8" class="st159" width="403.2" height="76.6"/>
	<rect x="77.3" y="23.8" class="st160" width="403.2" height="76.6"/>
	<rect x="77.3" y="23.8" class="st161" width="403.2" height="76.6"/>
	<rect x="77.4" y="23.7" class="st162" width="403.2" height="76.6"/>
	<rect x="77.4" y="23.7" class="st163" width="403.2" height="76.6"/>
	<rect x="77.5" y="23.6" class="st164" width="403.2" height="76.6"/>
	<rect x="77.5" y="23.6" class="st165" width="403.2" height="76.6"/>
	<rect x="77.6" y="23.5" class="st166" width="403.2" height="76.6"/>
	<rect x="77.6" y="23.5" class="st167" width="403.2" height="76.6"/>
	<rect x="77.7" y="23.4" class="st168" width="403.2" height="76.6"/>
	<rect x="77.7" y="23.4" class="st169" width="403.2" height="76.6"/>
	<rect x="77.8" y="23.4" class="st170" width="403.2" height="76.6"/>
	<rect x="77.8" y="23.3" class="st171" width="403.2" height="76.6"/>
	<rect x="77.9" y="23.3" class="st172" width="403.2" height="76.6"/>
	<rect x="77.9" y="23.2" class="st173" width="403.2" height="76.6"/>
	<rect x="78" y="23.2" class="st174" width="403.2" height="76.6"/>
	<rect x="78" y="23.1" class="st175" width="403.2" height="76.6"/>
	<rect x="78.1" y="23.1" class="st176" width="403.2" height="76.6"/>
	<rect x="78.1" y="23" class="st177" width="403.2" height="76.6"/>
	<rect x="78.2" y="23" class="st178" width="403.2" height="76.6"/>
	<rect x="78.2" y="23" class="st179" width="403.2" height="76.6"/>
	<rect x="78.3" y="22.9" class="st180" width="403.2" height="76.6"/>
	<rect x="78.3" y="22.9" class="st181" width="403.2" height="76.6"/>
	<rect x="78.4" y="22.8" class="st182" width="403.2" height="76.6"/>
	<rect x="78.4" y="22.8" class="st183" width="403.2" height="76.6"/>
	<rect x="78.5" y="22.7" class="st184" width="403.2" height="76.6"/>
	<rect x="78.5" y="22.7" class="st185" width="403.2" height="76.6"/>
	<rect x="78.6" y="22.6" class="st186" width="403.2" height="76.6"/>
	<rect x="78.6" y="22.6" class="st187" width="403.2" height="76.6"/>
	<rect x="78.7" y="22.5" class="st188" width="403.2" height="76.6"/>
	<rect x="78.7" y="22.5" class="st189" width="403.2" height="76.6"/>
	<rect x="78.8" y="22.5" class="st190" width="403.2" height="76.6"/>
	<rect x="78.9" y="22.4" class="st191" width="403.2" height="76.6"/>
	<rect x="78.9" y="22.4" class="st192" width="403.2" height="76.6"/>
	<rect x="79" y="22.3" class="st193" width="403.2" height="76.6"/>
	<rect x="79" y="22.3" class="st194" width="403.2" height="76.6"/>
	<rect x="79.1" y="22.2" class="st195" width="403.2" height="76.6"/>
	<rect x="79.1" y="22.2" class="st196" width="403.2" height="76.6"/>
	<rect x="79.2" y="22.1" class="st197" width="403.2" height="76.6"/>
	<rect x="79.2" y="22.1" class="st198" width="403.2" height="76.6"/>
	<rect x="79.3" y="22.1" class="st199" width="403.2" height="76.6"/>
	<rect x="79.3" y="22" class="st200" width="403.2" height="76.6"/>
	<rect x="79.4" y="22" class="st201" width="403.2" height="76.6"/>
	<rect x="79.4" y="21.9" class="st202" width="403.2" height="76.6"/>
	<rect x="79.5" y="21.9" class="st203" width="403.2" height="76.6"/>
	<rect x="79.5" y="21.8" class="st204" width="403.2" height="76.6"/>
	<rect x="79.6" y="21.8" class="st205" width="403.2" height="76.6"/>
	<rect x="79.6" y="21.7" class="st206" width="403.2" height="76.6"/>
	<rect x="79.7" y="21.7" class="st207" width="403.2" height="76.6"/>
	<rect x="79.7" y="21.7" class="st208" width="403.2" height="76.6"/>
	<rect x="79.8" y="21.6" class="st209" width="403.2" height="76.6"/>
	<rect x="79.8" y="21.6" class="st210" width="403.2" height="76.6"/>
	<rect x="79.9" y="21.5" class="st211" width="403.2" height="76.6"/>
	<rect x="79.9" y="21.5" class="st212" width="403.2" height="76.6"/>
	<rect x="80" y="21.4" class="st213" width="403.2" height="76.6"/>
	<rect x="80" y="21.4" class="st214" width="403.2" height="76.6"/>
	<rect x="80.1" y="21.3" class="st215" width="403.2" height="76.6"/>
	<rect x="80.1" y="21.3" class="st216" width="403.2" height="76.6"/>
	<rect x="80.2" y="21.3" class="st217" width="403.2" height="76.6"/>
	<rect x="80.2" y="21.2" class="st218" width="403.2" height="76.6"/>
	<rect x="80.3" y="21.2" class="st219" width="403.2" height="76.6"/>
	<rect x="80.3" y="21.1" class="st220" width="403.2" height="76.6"/>
	<rect x="80.4" y="21.1" class="st221" width="403.2" height="76.6"/>
	<rect x="80.4" y="21" class="st222" width="403.2" height="76.6"/>
	<rect x="80.5" y="21" class="st223" width="403.2" height="76.6"/>
	<rect x="80.6" y="20.9" class="st224" width="403.2" height="76.6"/>
	<rect x="80.6" y="20.9" class="st225" width="403.2" height="76.6"/>
	<rect x="80.7" y="20.9" class="st226" width="403.2" height="76.6"/>
	<rect x="80.7" y="20.8" class="st227" width="403.2" height="76.6"/>
	<rect x="80.8" y="20.8" class="st228" width="403.2" height="76.6"/>
	<rect x="80.8" y="20.7" class="st229" width="403.2" height="76.6"/>
	<rect x="80.9" y="20.7" class="st230" width="403.2" height="76.6"/>
	<rect x="80.9" y="20.6" class="st231" width="403.2" height="76.6"/>
	<rect x="81" y="20.6" class="st232" width="403.2" height="76.6"/>
	<rect x="81" y="20.5" class="st233" width="403.2" height="76.6"/>
	<rect x="81.1" y="20.5" class="st234" width="403.2" height="76.6"/>
	<rect x="81.1" y="20.5" class="st235" width="403.2" height="76.6"/>
	<rect x="81.2" y="20.4" class="st236" width="403.2" height="76.6"/>
	<rect x="81.2" y="20.4" class="st237" width="403.2" height="76.6"/>
	<rect x="81.3" y="20.3" class="st238" width="403.2" height="76.6"/>
	<rect x="81.3" y="20.3" class="st239" width="403.2" height="76.6"/>
	<rect x="81.4" y="20.2" class="st240" width="403.2" height="76.6"/>
	<rect x="81.4" y="20.2" class="st241" width="403.2" height="76.6"/>
	<rect x="81.5" y="20.1" class="st242" width="403.2" height="76.6"/>
	<rect x="81.5" y="20.1" class="st243" width="403.2" height="76.6"/>
	<rect x="81.6" y="20.1" class="st244" width="403.2" height="76.6"/>
	<rect x="81.6" y="20" class="st245" width="403.2" height="76.6"/>
	<rect x="81.7" y="20" class="st246" width="403.2" height="76.6"/>
	<rect x="81.7" y="19.9" class="st247" width="403.2" height="76.6"/>
	<rect x="81.8" y="19.9" class="st248" width="403.2" height="76.6"/>
	<rect x="81.8" y="19.8" class="st249" width="403.2" height="76.6"/>
	<rect x="81.9" y="19.8" class="st250" width="403.2" height="76.6"/>
	<rect x="81.9" y="19.7" class="st251" width="403.2" height="76.6"/>
	<rect x="82" y="19.7" class="st252" width="403.2" height="76.6"/>
	<rect x="82" y="19.7" class="st253" width="403.2" height="76.6"/>
	<rect x="82.1" y="19.6" class="st254" width="403.2" height="76.6"/>
	<rect x="82.1" y="19.6" class="st255" width="403.2" height="76.6"/>
</g>
<g>
	<g>
		<path d="M216.3,70.3c0.2-0.7,0.5-1.4,0.7-2.1c0.9-3.9,1.7-7.8,2.5-11.7c1.2-5.7,1.5-11.5,1.3-17.3c0-2-1.2-4.5-3.9-4.8
			c-0.4,0-0.7-0.3-1.1-0.5c0-0.1,0-0.2,0-0.4c0.5-0.1,0.9-0.3,1.4-0.3c7.2,0,14.3,0,21.5,0c4,0,7.9,0,11.9,0c2.2,0,2.2,0,2.8,2.1
			c0.9,3.4,1.8,6.8,2.6,10.2c0.1,0.5,0.1,1.1,0.2,1.7c-0.1,0.1-0.3,0.1-0.4,0.2c-0.2-0.4-0.5-0.7-0.7-1.1c-1.5-4.7-4.5-8.2-9-10.3
			c-2.7-1.3-5.7-1.4-8.6-1.5c-0.2,0-0.6,0.6-0.6,1c0,2.4,0.1,4.9,0,7.3c-0.2,3.8-0.6,7.5-0.9,11.3c0,0.4,0,0.8,0,1.3
			c2.6,0,5.2,0,7.8,0c2,0,4,0,6,0c0.3,0,0.6,0,0.9,0.1c0.2,0.1,0.5,0.3,0.5,0.5s-0.3,0.5-0.5,0.5c-0.6,0.1-1.2,0.2-1.9,0.2
			c-4.1,0-8.1,0.1-12.2,0c-0.9,0-1.2,0.4-1.3,1.1c-1.5,6.8-3,13.6-4.4,20.4c-0.1,0.6-0.1,1.2-0.2,2c5.1,0.4,9.5-1.4,13.5-4.2
			c4-2.7,7.1-6.2,9.2-10.7c0.2,0.1,0.3,0.2,0.5,0.3c-0.1,0.5,0,0.9-0.2,1.3c-2.1,4.3-4.3,8.6-6.4,12.9c-0.5,1.1-1.4,1.2-2.4,1.2
			c-7,0.1-14.1,0.1-21.2,0.2c-1.2,0-2.4,0-3.6,0c0-0.2,0-0.4-0.1-0.5c0.4-0.1,0.8-0.2,1.2-0.3c2.3-0.2,2.9-0.7,3.3-3
			c1.2-5.8,2.6-11.5,3.7-17.3c1.2-6.6,2.5-13.2,2-20c-0.1-1.3,0.1-2.6-0.1-3.9c-0.1-0.6-0.6-1.3-1.1-1.5c-0.9-0.3-1.9-0.5-2.9-0.4
			c-2.3,0.2-3.5,1.4-3.7,3.7c-0.2,2.8-0.3,5.5-0.3,8.3C222,51,221,55.6,220,60.2c-1,4.2-1.9,8.4-2.8,12.7c-0.5,2.4-0.9,4.9-1.3,7.4
			c-0.2,1-0.6,1.4-1.6,1.3s-2.3,0.4-2.7-1.1c-1.4-5.1-2.8-10.2-4-15.4c-1.9-8.3-3.8-16.7-8-24.3c-0.2-0.3-0.3-0.5-0.5-0.8
			c-0.1-0.1-0.2-0.1-0.5-0.4c0,1.4,0,2.6,0,3.8c0,5.7-1,11.2-2.3,16.8c-1.1,4.4-1.9,8.9-2.8,13.3c-0.3,1.5-0.7,3-0.2,4.6
			c0.4,1.5,1.3,2.2,2.7,2.6c0.3,0.1,0.5,0.2,0.8,0.6c-3.5,0.4-6.9,0.4-10.4,0.3c0-0.1-0.1-0.3-0.1-0.4c0.3-0.2,0.6-0.4,0.9-0.5
			c2.6-0.6,3.9-2.4,4.5-4.8c1.5-6.4,2.9-12.8,4.3-19.2c1.3-6,1.7-12,1.5-18c-0.1-2.1-1.8-3-3.3-3.9c-0.5-0.3-1.1-0.5-1.7-0.8
			c0-0.1,0-0.2,0-0.3c0.4-0.1,0.7-0.2,1.1-0.2c2.9,0,5.7,0,8.6,0c1,0,1.5,0.5,1.9,1.3c2,4.2,4.1,8.4,5.9,12.6
			c2.4,5.6,3.5,11.6,4.7,17.5c0.3,1.5,0.7,3,1.1,4.6c0.1,0.3,0.3,0.6,0.4,0.9C216.1,70.3,216.2,70.3,216.3,70.3z"/>
		<path d="M396.4,33.2c0.5-0.1,1-0.2,1.5-0.2c2.1,0,4.2,0.1,6.2,0.1c3.3,0,6.6,0,9.9,0.2c1.6,0.1,3.2,0.4,4.7,1
			c5,2.1,7.1,6.1,6.7,11.8c-0.4,6.3-5.4,10.4-11.3,11.2c-2.3,0.3-4.6,0.1-6.9,0.1c-0.3,0-0.8,0.3-0.8,0.6c-1.1,4.9-2.1,9.8-3.2,14.8
			c-0.2,1.1-0.5,2.3-0.7,3.4c-0.3,1.5,0.1,2.1,1.6,2.4c0.5,0.1,0.9,0.1,1.4,0.2c0.4,0.1,0.8,0.1,1.2,0.2c0,0.1,0,0.3,0,0.5
			c-0.6,0.1-1.2,0.3-1.8,0.3c-6.8,0-13.5,0-20.3,0.1c-2.3,0-4.6,0.1-6.9,0.1c-0.4,0-0.8-0.1-1.2-0.2c0-0.1,0-0.2,0-0.4
			c0.4-0.1,0.7-0.4,1.1-0.4c2.8,0,3.7-1.2,3.7-4.2c0.1-3.9-0.1-7.8-0.2-11.7c0-1.2,0-2.3,0-3.6c-0.6-0.1-1-0.2-1.5-0.2
			c-2.4,0-4.8,0.1-7.2,0.1c-0.8,0-1.2,0.3-1.6,1.1c-1.7,3.7-3.6,7.4-5.3,11.1c-0.6,1.3-1,2.6-1.2,4c-0.3,1.9,0.6,3,2.5,3.4
			c0.4,0.1,0.9,0.2,1.4,0.3c-0.7,0.8-9.8,1.1-11.5,0.3c0.5-0.2,0.8-0.4,1.1-0.5c1.4-0.3,2.6-0.9,3.3-2.2c1.3-2.2,2.6-4.4,3.7-6.6
			c2-4,4-8.1,6-12.2c2.4-5,3.6-10.4,5.3-15.6c0.8-2.4,0.6-4.6-0.3-6.9c-0.9-2.4-0.8-2.6,1.8-2.5c0.8,0,1.6,0,2.5,0
			c1.9,0,2.1,0.1,2.5,1.9c0.7,2.6,1.4,5.2,2.1,7.8c0.9,3.8,2.1,7.6,2.6,11.5c0.6,4.1,0.6,8.4,0.8,12.6c0.2,3.3,0.2,6.7,0.5,10
			c0.1,1.3,0.9,1.9,2.2,1.9c0.7,0,1.5,0,2.2-0.1c1.5-0.1,2.2-0.8,2.5-2.2c1.1-4.9,2.3-9.8,3.3-14.7c1-5,1.6-10.2,1.5-15.3
			c-0.1-3.3,0-6.6-0.1-10c0-1.6-0.7-2.2-2.3-2.4c-0.6-0.1-1.2-0.2-1.8-0.3C396.4,33.5,396.4,33.3,396.4,33.2z M407,34
			c0,1.1,0,2.2,0,3.3c0,5.8,0,11.6-0.1,17.4c0,0.8,0.1,1.5,1,1.7c4.5,1,7.7-1,9.3-5.2c1.1-3.1,1.1-6.3,0.6-9.5
			c-0.3-1.5-0.8-3.1-1.6-4.5C414.2,33.6,410.7,33.4,407,34z M381,58.1c0.1-6-1.8-11.3-3.3-16.7c-1.8,5.6-3.6,11.2-5.3,16.7
			C375.1,58.1,377.9,58.1,381,58.1z"/>
		<path d="M168.8,82.8c-5.6,0.2-10.1-3.5-11.9-8.8c-1.4-4.3-1.9-8.6-0.7-13c0.9-3.3,1.4-6.6,2.5-9.8c1.5-4.8,3.2-9.5,6.7-13.3
			c5-5.6,12.2-7.2,18.9-3.4c4.1,2.3,6.7,6.1,8,10.7c1.3,4.4,0.9,8.7-0.3,13c-2.1,7.5-5.8,14.2-11.5,19.5
			C177.3,80.8,173.5,83,168.8,82.8z M162.5,67.9c0.2,3.8,0.5,6.9,1.8,9.8c1.5,3.4,4.5,4.7,7.9,3.3c1.4-0.6,2.8-1.5,3.8-2.6
			c2.2-2.2,3.6-5,4.7-7.9c2.3-5.8,4.3-11.6,4.9-17.9c0.5-4.9,0-9.6-2.3-14c-1-2.1-2.5-3.8-4.7-4.7c-2.7-1-5.8,0.1-7.7,2.5
			c-2.2,2.9-3.1,6.3-4,9.8c-0.9,3.9-1.9,7.9-2.7,11.9C163.5,61.6,162.9,65.1,162.5,67.9z"/>
		<path d="M97.3,68.6c0.1,1,0.2,2.1,0.4,3.1c0.3,1.9,0.6,3.9,1.1,5.7c1.3,5.1,7.2,5.2,10.3,2.6c2.6-2.2,3.9-5.2,4.6-8.5
			c0.7-3.1,0.5-6.1-1.5-8.6c-1.1-1.4-2.7-2.5-4.2-3.4c-3-2-5.3-4.4-6.3-8c-0.6-2.5-0.6-4.9-0.4-7.4c0.2-3.1,1.3-5.9,3.5-8.1
			c3.4-3.3,7.6-4.1,12.1-2.9c1.6,0.4,3.2,1.1,4.7,1.8c0.4,0.2,0.9,0.8,0.9,1.2c-0.2,3-0.5,6-0.8,9c0,0.2-0.2,0.4-0.3,0.7
			c-0.2-0.3-0.4-0.4-0.5-0.6c-0.9-2.6-1.7-5.2-2.6-7.8c-0.2-0.6-0.7-1.2-1.2-1.6c-2.7-2.1-6.3-1.8-8.4,0.5c-1.1,1.3-1.7,2.8-1.8,4.5
			c-0.5,4.8,1.1,8.7,5,11.5c1.4,1,3,1.9,4.4,3c3.3,2.8,4.3,6.4,4,10.6c-0.5,6.4-4.8,14.4-11.7,16.9c-2.9,1-5.8,0.9-8.7,0.2
			c-1.5-0.4-3-1-4.6-1.5c-0.7-0.2-1-0.7-0.8-1.5c0.7-3.4,1.3-6.9,2-10.3c0.1-0.3,0.3-0.7,0.5-1C97,68.6,97.1,68.6,97.3,68.6z"/>
		<path d="M138,34.7c-2.7-0.4-4.7,0.9-6.6,2.4c-3.2,2.4-5.4,5.5-6.9,9.2c-0.1,0.2-0.2,0.4-0.3,0.6c-0.1,0.1-0.2,0.1-0.5,0.4
			c0-0.6,0-0.9,0.1-1.3c0.9-3.6,2-7.2,2.8-10.9c0.3-1.2,1-1.5,2.1-1.5c3.9,0,7.8,0,11.6,0c4.5,0,9.1-0.1,13.6-0.1c1.9,0,2,0,2.4,1.8
			c0.7,3.4,1.4,6.9,2.1,10.3c0.1,0.5,0,1,0,1.5c-0.1,0-0.2,0-0.3,0.1c-0.1-0.4-0.3-0.7-0.4-1.1c-1.4-4.7-4.3-8.1-8.5-10.4
			c-1.1-0.6-2.4-0.7-3.6-1c-0.9-0.2-1.2,0.2-1.2,1c0,3.2-0.1,6.3-0.1,9.5c-0.1,4.7-1,9.2-2.2,13.7c-0.4,1.6-0.8,3.2-1.1,4.8
			c-0.9,4.9-1.9,9.7-2.7,14.6c-0.4,2.1,0.3,2.7,2.4,2.9c0.7,0,1.4,0.2,2,0.2c0,0.1,0,0.2,0,0.4c-0.4,0.1-0.8,0.3-1.2,0.3
			c-4.7,0-9.4,0-14.1,0.1c-0.4,0-0.7-0.1-1.1-0.1c0-0.1,0-0.2,0-0.3c0.3-0.1,0.6-0.3,1-0.3c0.7-0.1,1.3-0.1,2-0.3
			c1.2-0.3,2.1-0.9,2.3-2.2c0.4-2.2,0.7-4.4,1.1-6.6c0.4-2.3,1-4.6,1.5-6.9c0.6-2.6,1.2-5.2,1.8-7.9c0.6-2.8,1.2-5.6,1.7-8.5
			c0.3-1.7,0.4-3.5,0.4-5.2C138,40.8,138,37.8,138,34.7z"/>
		<path d="M334.8,45.6c0.1-0.6,0.2-1.3,0.3-2c0.6-2.6,1.3-5.2,1.9-7.8c0.1-0.3,0.1-0.5,0.1-0.8c0.3-1.6,0.5-1.9,2.2-1.9
			c2.5-0.1,5-0.1,7.5-0.1c6,0,12,0,18-0.1c1.8,0,2,0.1,2.4,1.9c0.8,3.5,1.5,7,2.2,10.5c0.1,0.4,0,0.8-0.2,1.3
			c-1.3-3.1-2.7-6.1-5.1-8.4s-4.9-4.4-8.7-4.3c-0.1,0.6-0.2,1-0.2,1.5c-0.1,6,0.1,12-0.3,17.9c-0.3,4-1.4,7.9-2.2,11.8
			c-0.7,3.7-1.6,7.3-2.3,11c-0.4,1.8,0.2,2.5,2.1,2.7c0.7,0.1,1.4,0.2,2.2,0.3c0,0.1,0,0.3,0,0.4c-0.3,0.1-0.6,0.3-1,0.3
			c-4.7,0.1-9.4,0.1-14.1,0.2c-0.4,0-0.9-0.1-1.3-0.2c0-0.1,0-0.3,0-0.4c0.5-0.1,1.1-0.3,1.6-0.4c2.7-0.2,3.5-0.9,4-3.5
			c0.8-4,1.6-8,2.6-11.9c1.8-7.3,2.5-14.8,2.2-22.3c-0.1-2.1-0.1-4.1,0-6.2c0-1.1-0.5-1.4-1.4-1.1c-0.9,0.2-1.7,0.5-2.5,0.9
			c-4.2,2.2-7.1,5.6-9.1,9.9c-0.1,0.2-0.2,0.4-0.3,0.6c0,0.1-0.2,0.1-0.3,0.2C335.1,45.6,334.9,45.6,334.8,45.6z"/>
		<path d="M296.4,66.8c0.1,1.6,0.1,3.2,0.4,4.8c0.3,1.8,0.7,3.6,1.4,5.2c1.1,2.6,4.9,3.9,8,2.2c4.1-2.1,5.7-5.9,6.5-10.2
			c0.9-4.9-0.6-8.4-5.5-10.9c-5.8-2.9-8.5-7.8-8.3-14.2c0.2-5.1,2.9-9.4,7.5-10.9c4.5-1.5,8.9-0.7,13,1.7c0.3,0.2,0.6,0.6,0.6,0.9
			c-0.2,3.1-0.5,6.2-0.8,9.7c-0.4-0.6-0.7-0.8-0.8-1.1c-0.7-2.1-1.4-4.1-2-6.2c-0.7-2.4-2.5-3.8-5.6-4c-2.2-0.2-4.3,1-5.3,3
			c-2.6,5.2-0.6,10.9,4.3,13.8c1.8,1.1,3.5,2.1,5.3,3.3c4,2.6,5,6.5,4.3,11c-0.9,5.1-3.2,9.5-7.2,12.9c-3.9,3.4-8.5,4.1-13.4,3
			c-1.5-0.3-3-0.9-4.5-1.4c-0.8-0.3-1.2-0.8-1-1.7c0.8-3.3,1.5-6.6,2.3-9.9c0.1-0.4,0.3-0.7,0.5-1.1
			C296.2,66.8,296.3,66.8,296.4,66.8z"/>
		<path d="M451.7,66c0.1,0.5,0.3,0.9,0.3,1.4c0.1,1.4,0,2.8,0.2,4.2c0.2,1.4,0.5,2.8,1,4.2c1,2.4,4,3.6,6.9,2.8c2.3-0.6,4-2,5.3-3.9
			c2.1-3.1,3.3-6.4,2.9-10.2c-0.3-2.9-2.1-4.7-4.5-6.2c-2.2-1.4-4.5-2.7-6.6-4.3c-2.1-1.7-3.3-4-3.8-6.8c-0.3-1.9-0.3-3.8,0-5.7
			c1-6.2,6.2-10.1,12.8-9.3c2.5,0.3,4.9,0.7,7,2.2c0.5,0.3,1,1,1,1.6c-0.1,2.7-0.4,5.5-0.6,8.2c0,0.2-0.1,0.4-0.5,0.7
			c-0.2-0.5-0.4-1-0.6-1.5c-0.8-2.2-1.5-4.4-2.5-6.6c-1-2.4-3.3-2.9-5.6-3c-2.1-0.1-3.7,1-4.7,2.9c-2.7,5.1-0.6,10.5,3.8,13.3
			c2.3,1.5,4.8,2.7,7,4.2c2.9,2,4.4,4.9,4.1,8.3c-0.6,7.4-4.1,13-10.6,16.5c-3.8,2.1-7.8,1.6-11.8,0.5c-1-0.3-2-0.7-3-1.1
			c-0.6-0.3-1-0.7-0.8-1.5c0.8-3.3,1.6-6.5,2.3-9.8c0.1-0.4,0.3-0.8,0.5-1.3C451.4,65.9,451.6,65.9,451.7,66z"/>
		<path d="M433,78.9c0.4-0.1,0.7-0.3,1.1-0.3c2.9-0.2,3.7-1.2,3.7-4.2c0.1-4.4-0.1-8.8-0.2-13.2c0-2.1-0.1-2.2-2.2-2.2
			s-4.2-0.1-6.2,0.1c-0.6,0-1.5,0.4-1.7,0.9c-2.2,4.5-4.3,9.1-6.4,13.6c-0.3,0.5-0.3,1.2-0.4,1.8c0,1.5,0.7,2.6,2.2,3
			c0.5,0.2,1.1,0.3,1.7,0.4c-0.7,0.7-9.8,0.9-11.1,0.3c0.2-0.2,0.4-0.4,0.6-0.5c2-0.3,3.4-1.6,4.2-3.2c3.5-7,7.2-14.1,10.2-21.3
			c1.9-4.6,2.9-9.5,4.3-14.3c0.1-0.4,0.1-0.8,0-1.2c-0.4-1.4-0.8-2.8-1.3-4.3c-0.3-0.8,0.1-1.2,0.8-1.2c1.6,0,3.2-0.1,4.8,0.1
			c0.5,0,1.1,0.6,1.3,1.1c0.8,2.6,1.6,5.3,2.3,8c1,3.8,1.9,7.6,2.8,11.4c1.4,5.9,0.8,11.8,1,17.7c0.1,1.7,0.2,3.4,0.4,5.1
			c0.1,1.1,0.8,1.7,1.8,1.9c0.4,0.1,0.8,0.2,1.2,0.3c0,0.1,0,0.2,0,0.3c-0.3,0.1-0.6,0.3-1,0.3c-4.3,0.1-8.7,0.1-13,0.1
			c-0.3,0-0.7-0.1-1-0.2C433,79.2,433,79.1,433,78.9z M428.6,58c2,0,4.3,0,6.6,0c2.2,0,2.3,0,1.9-2.1c-0.8-3.9-1.6-7.8-2.5-11.7
			c-0.2-0.9-0.5-1.7-0.8-2.6c-0.1,0-0.2,0-0.3,0C431.9,47.1,430.3,52.5,428.6,58z"/>
		<path d="M270.7,33.8c-0.4,0.1-0.8,0.3-1.2,0.4c-1.6,0.3-2.2,1.1-1.9,2.7c0.2,1.1,0.5,2.3,1,3.4c1,2.6,2.1,5.2,3,7.9
			c0.9,2.6,1.6,5.4,2.4,8.2c0.3-0.4,0.6-0.7,0.8-1.1c1.6-3.1,3.2-6.3,4.6-9.5c1-2.3,1.8-4.7,2.4-7.2c0.6-2.3-0.1-4.1-2.8-4.5
			c-0.2,0-0.3-0.2-0.5-0.5c3.3-0.5,6.6-0.4,9.9-0.3c0,0.1,0,0.3,0.1,0.4c-0.2,0.1-0.5,0.3-0.7,0.4c-1.8,0.4-2.9,1.7-3.6,3.3
			c-1.6,3.7-3,7.5-4.7,11.2c-1.2,2.6-2.6,5.1-3.8,7.6c-0.7,1.4-1.4,2.9-1.7,4.5c-1.3,5.5-2.4,11.1-3.6,16.7
			c-0.3,1.4,0.3,2.1,1.8,2.2c0.4,0,0.9,0,1.3,0.1c0.4,0,0.7,0.1,1.1,0.2c0,0.1,0,0.3,0.1,0.4c-0.4,0.1-0.9,0.3-1.3,0.3
			c-3.1,0.1-6.2,0.1-9.3,0.1c-1.5,0-2.9,0.1-4.3,0.1c-0.5,0-1-0.1-1.5-0.2c0-0.2,0-0.3,0-0.5c0.5-0.1,0.9-0.2,1.3-0.3
			c0.7-0.1,1.5-0.1,2.2-0.3c0.9-0.3,1.5-0.9,1.8-2c1.2-5.7,2.5-11.4,3.7-17c0.5-2.2-0.4-4.3-0.9-6.4c-1.1-5.5-3.5-10.7-5.7-15.8
			c-0.9-2.1-2-4-4.6-4.3c-0.1,0-0.2-0.2-0.6-0.4c0.6-0.1,1-0.3,1.3-0.3c4.4,0,8.8,0.1,13.2,0.1c0.2,0,0.5,0.1,0.7,0.2
			C270.7,33.6,270.7,33.7,270.7,33.8z"/>
		<path d="M288.3,51.3c0.2-0.2,0.4-0.5,0.6-0.7c2.9-2.7,3.4-6.1,1.3-9.5c-1-1.5-1.7-2.9-1.5-4.8c0.2-1.3,0.8-2.3,2-2.8
			c1.3-0.5,2.3,0,3.1,1c3.4,3.6,3.4,8.9,0,12.9c-1.3,1.4-2.9,2.6-4.4,3.8c-0.3,0.2-0.7,0.2-1,0.3C288.4,51.5,288.4,51.4,288.3,51.3z
			"/>
	</g>
</g>
</svg>
